<svg width="118" height="70" viewBox="0 0 118 70" fill="none" xmlns="http://www.w3.org/2000/svg">
<rect width="118" height="70" rx="8" fill="#00A0E9"/>
<mask id="mask0_26283_1671" style="mask-type:luminance" maskUnits="userSpaceOnUse" x="30" y="13" width="59" height="44">
<path fill-rule="evenodd" clip-rule="evenodd" d="M30.0001 13H88.0264V56.3859H30.0001V13Z" fill="white"/>
</mask>
<g mask="url(#mask0_26283_1671)">
<path fill-rule="evenodd" clip-rule="evenodd" d="M44.3009 52.0602C39.1268 52.0602 33.6982 49.6852 33.6982 45.1049C33.6982 40.5245 38.8723 37.9798 44.4705 37.9798C50.0688 37.9798 58.975 42.8147 58.975 42.8147C56.8545 46.5468 49.475 52.0602 44.3009 52.0602ZM67.6947 39.6357C71.1986 34.0391 72.6007 27.1788 72.6007 27.1788H60.1201V22.6697H75.2701V20.2226H60.1201V13H53.7161C53.5286 13 53.3768 13.1518 53.3768 13.3393V20.3371H46.5911V18.0469H44.9795V20.2522H38.2786V22.8817H53.6312V27.038H41.1625V29.6674H64.9973C64.4884 33.4844 61.5196 37.8951 61.5196 37.8951C61.5196 37.8951 49.8991 33.8237 42.9437 33.8237C35.9884 33.8237 30.257 38.7484 30.0085 44.4688C29.7964 49.346 33.571 57.0224 44.8522 56.3438C56.1335 55.6652 63.7674 45.4866 63.7674 45.4866L88.0264 56.3794V46.4307C68.1781 40.8427 67.6947 39.6357 67.6947 39.6357Z" fill="white"/>
</g>
</svg>
