<svg width="118" height="70" viewBox="0 0 118 70" fill="none" xmlns="http://www.w3.org/2000/svg">
<rect width="118" height="70" rx="8" fill="white"/>
<path d="M79.7677 41.4293H85.6852C85.8543 41.4293 86.2488 41.3744 86.4179 41.3744C87.545 41.1546 88.5031 40.1656 88.5031 38.792C88.5031 37.4733 87.545 36.4843 86.4179 36.2095C86.2488 36.1546 85.9107 36.1546 85.6852 36.1546H79.7677V41.4293Z" fill="url(#paint0_linear_26283_1618)"/>
<path d="M85.009 5C79.3732 5 74.7519 9.45055 74.7519 15V25.3846H89.2358C89.5739 25.3846 89.9684 25.3846 90.2502 25.4396C93.5189 25.6044 95.9423 27.2527 95.9423 30.1099C95.9423 32.3626 94.3079 34.2857 91.2646 34.6703V34.7802C94.5897 35 97.1258 36.8132 97.1258 39.6154C97.1258 42.6374 94.3079 44.6154 90.5883 44.6154H74.6956V64.9451H89.743C95.3787 64.9451 100 60.4945 100 54.9451V5H85.009Z" fill="url(#paint1_linear_26283_1618)"/>
<path d="M87.7704 30.7682C87.7704 29.4495 86.8124 28.5704 85.6852 28.4056C85.5725 28.4056 85.2907 28.3506 85.1216 28.3506H79.7677V33.1858H85.1216C85.2907 33.1858 85.6289 33.1858 85.6852 33.1309C86.8124 32.966 87.7704 32.0869 87.7704 30.7682Z" fill="url(#paint2_linear_26283_1618)"/>
<path d="M28.3134 5C22.6777 5 18.0564 9.45055 18.0564 15V39.6703C20.9306 41.044 23.9175 41.9231 26.9045 41.9231C30.455 41.9231 32.3711 39.8352 32.3711 36.978V25.3297H41.1629V36.9231C41.1629 41.4286 38.2886 45.1099 28.5388 45.1099C22.6213 45.1099 18 43.8462 18 43.8462V64.8901H33.0474C38.6831 64.8901 43.3044 60.4396 43.3044 54.8901V5H28.3134Z" fill="url(#paint3_linear_26283_1618)"/>
<path d="M56.6611 5C51.0254 5 46.4041 9.45055 46.4041 15V28.0769C48.9965 25.9341 53.5051 24.5604 60.7752 24.8901C64.6638 25.0549 68.8343 26.0989 68.8343 26.0989V30.3297C66.7491 29.2857 64.2693 28.3516 61.057 28.1319C55.5339 27.7473 52.2089 30.3846 52.2089 35C52.2089 39.6703 55.5339 42.3077 61.057 41.8681C64.2693 41.6484 66.7491 40.6593 68.8343 39.6703V43.9011C68.8343 43.9011 64.7202 44.9451 60.7752 45.1099C53.5051 45.4396 48.9965 44.0659 46.4041 41.9231V65H61.4515C67.0872 65 71.7085 60.5495 71.7085 55V5H56.6611Z" fill="url(#paint4_linear_26283_1618)"/>
<defs>
<linearGradient id="paint0_linear_26283_1618" x1="74.7425" y1="38.7985" x2="100.068" y2="38.7985" gradientUnits="userSpaceOnUse">
<stop stop-color="#007940"/>
<stop offset="0.2285" stop-color="#00873F"/>
<stop offset="0.7433" stop-color="#40A737"/>
<stop offset="1" stop-color="#5CB531"/>
</linearGradient>
<linearGradient id="paint1_linear_26283_1618" x1="74.7417" y1="34.9485" x2="100.069" y2="34.9485" gradientUnits="userSpaceOnUse">
<stop stop-color="#007940"/>
<stop offset="0.2285" stop-color="#00873F"/>
<stop offset="0.7433" stop-color="#40A737"/>
<stop offset="1" stop-color="#5CB531"/>
</linearGradient>
<linearGradient id="paint2_linear_26283_1618" x1="74.7419" y1="30.7614" x2="100.068" y2="30.7614" gradientUnits="userSpaceOnUse">
<stop stop-color="#007940"/>
<stop offset="0.2285" stop-color="#00873F"/>
<stop offset="0.7433" stop-color="#40A737"/>
<stop offset="1" stop-color="#5CB531"/>
</linearGradient>
<linearGradient id="paint3_linear_26283_1618" x1="18.0444" y1="34.9485" x2="43.762" y2="34.9485" gradientUnits="userSpaceOnUse">
<stop stop-color="#1F286F"/>
<stop offset="0.4751" stop-color="#004E94"/>
<stop offset="0.8261" stop-color="#0066B1"/>
<stop offset="1" stop-color="#006FBC"/>
</linearGradient>
<linearGradient id="paint4_linear_26283_1618" x1="46.2583" y1="34.9485" x2="71.2361" y2="34.9485" gradientUnits="userSpaceOnUse">
<stop stop-color="#6C2C2F"/>
<stop offset="0.1735" stop-color="#882730"/>
<stop offset="0.5731" stop-color="#BE1833"/>
<stop offset="0.8585" stop-color="#DC0436"/>
<stop offset="1" stop-color="#E60039"/>
</linearGradient>
</defs>
</svg>
