<svg width="118" height="70" viewBox="0 0 118 70" fill="none" xmlns="http://www.w3.org/2000/svg">
<rect width="118" height="70" rx="8" fill="#E1232E"/>
<path d="M71.6082 32.4186V38.7087H65.3443C64.7019 38.7087 64.22 38.1845 64.22 37.5797V32.459C64.22 31.8139 64.742 31.33 65.3443 31.33H70.4437C71.1264 31.2897 71.6082 31.7735 71.6082 32.4186Z" fill="white"/>
<path d="M100.96 34.9592H97.8282C97.8282 31.2094 94.7766 28.145 91.0423 28.145C88.071 28.145 85.4611 30.0804 84.5777 32.9028C84.3769 33.5883 84.2565 34.2737 84.2565 34.9592V44.9587H84.1762C82.4897 44.9587 81.1245 43.5878 81.1245 41.8943V34.9592H81.1647C81.1647 32.2174 82.289 29.5965 84.2966 27.7015C86.1437 25.9677 88.5528 25 91.0825 25C96.5433 25 100.96 29.4756 100.96 34.9592Z" fill="white"/>
<path d="M101 44.9597L96.5832 45L95.4991 43.9113L93.0899 41.492L89.7572 38.1454H94.174L101 44.9597Z" fill="white"/>
<path d="M72.6524 41.8137H63.2164C62.052 41.8137 61.1285 40.8863 61.1285 39.717V30.2417C61.1285 29.0724 62.052 28.145 63.2164 28.145H72.6524C73.8168 28.145 74.7403 29.0724 74.7403 30.2417V39.717L77.8723 42.862V28.0644C77.8723 26.3709 76.5071 25 74.8206 25H61.0481C59.3617 25 57.9965 26.3709 57.9965 28.0644V41.8943C57.9965 43.5878 59.3617 44.9587 61.0481 44.9587H75.7843L72.6524 41.8137Z" fill="white"/>
<path d="M34.306 44.9991H29.8891L20.6539 35.685V44.9991H17V25H20.6539V33.9109L29.5277 25H33.8643L24.2275 34.5963L34.306 44.9991Z" fill="white"/>
<path d="M50.8093 25H54.3829V44.9991H50.8093V36.3301H40.6105V44.9991H37.0368V25H40.6105V33.3464H50.8093V25Z" fill="white"/>
</svg>
