<svg width="118" height="70" viewBox="0 0 118 70" fill="none" xmlns="http://www.w3.org/2000/svg">
<rect width="118" height="70" rx="8" fill="white"/>
<path d="M67.4333 20.0136H50.647V49.6808H67.4333V20.0136Z" fill="#FF5F00"/>
<path d="M51.7139 34.8442C51.7139 28.8164 54.5915 23.47 59.0146 20.0106C55.7639 17.4947 51.6606 15.9746 47.1842 15.9746C36.5796 15.9746 27.9999 24.4135 27.9999 34.8442C27.9999 45.2749 36.5796 53.7138 47.1842 53.7138C51.6606 53.7138 55.7639 52.1937 59.0146 49.6778C54.5915 46.2708 51.7139 40.872 51.7139 34.8442Z" fill="#EB001B"/>
<path d="M90.082 34.8442C90.082 45.2749 81.5024 53.7138 70.8977 53.7138C66.4213 53.7138 62.318 52.1937 59.0674 49.6778C63.5437 46.2183 66.3681 40.872 66.3681 34.8442C66.3681 28.8164 63.4904 23.47 59.0674 20.0106C62.318 17.4947 66.4213 15.9746 70.8977 15.9746C81.5024 15.9746 90.082 24.4659 90.082 34.8442Z" fill="#F79E1B"/>
<path fill-rule="evenodd" clip-rule="evenodd" d="M90.0823 54V51.2839H89.5203L88.8627 53.2239L88.2052 51.2839H87.6401V54H88.0471V51.9435L88.6592 53.7089H89.0804L89.6909 51.9435V54H90.0823ZM86.4658 54V51.7495H87.2486V51.2839H85.3856V51.7495H86.123V54H86.4658Z" fill="#F79E1B"/>
</svg>
