<svg width="107" height="70" viewBox="0 0 107 70" fill="none" xmlns="http://www.w3.org/2000/svg">
<path fill-rule="evenodd" clip-rule="evenodd" d="M0.172074 63.3568C-0.662499 67.0258 1.61942 70 5.2689 70H33.2479C36.8972 70 40.5322 67.0258 41.3668 63.3568L54.2666 6.64319C55.101 2.97431 52.8192 0 49.1699 0H21.1908C17.5414 0 13.9064 2.97431 13.0719 6.64319L0.172074 63.3568Z" fill="#DC1F2A"/>
<path fill-rule="evenodd" clip-rule="evenodd" d="M24.5756 63.3568C23.741 67.0258 26.0229 70 29.6724 70H57.6514C61.3008 70 64.9357 67.0258 65.7702 63.3568L78.67 6.64319C79.5046 2.97431 77.2227 0 73.5734 0H45.5942C41.9449 0 38.3099 2.97431 37.4754 6.64319L24.5756 63.3568Z" fill="#1A457F"/>
<path fill-rule="evenodd" clip-rule="evenodd" d="M52.7335 63.3568C51.8989 67.0258 54.1808 70 57.8301 70H85.8093C89.4586 70 93.0936 67.0258 93.928 63.3568L106.828 6.64319C107.662 2.97431 105.381 0 101.731 0H73.7522C70.1027 0 66.4678 2.97431 65.6333 6.64319L52.7335 63.3568Z" fill="#05798A"/>
<path fill-rule="evenodd" clip-rule="evenodd" d="M70.8747 51.822C71.6381 51.822 72.3435 51.8284 73.0485 51.8127C73.1229 51.8112 73.2352 51.6936 73.2613 51.6084C73.4181 51.0985 73.5559 50.5826 73.6977 50.0679C73.7301 49.9499 73.7528 49.8289 73.7876 49.6746C73.1351 49.6746 72.5201 49.6699 71.9051 49.676C71.3763 49.6813 71.5062 49.5898 71.356 50.0903C71.1876 50.6511 71.0412 51.2189 70.8747 51.822ZM76.1577 41.2011C75.4052 41.2011 74.685 41.1971 73.9648 41.2086C73.9068 41.2095 73.8235 41.3062 73.798 41.3757C73.7238 41.5787 73.6722 41.7904 73.6134 41.999C73.4291 42.6539 73.2459 43.3089 73.0542 43.9921C73.1456 43.9677 73.1963 43.954 73.2471 43.9406C73.9693 43.7499 74.6934 43.5659 75.4117 43.3609C75.5046 43.3344 75.6063 43.2116 75.6371 43.1122C75.7943 42.6031 75.9305 42.0875 76.0718 41.5735C76.1021 41.4633 76.1236 41.3506 76.1577 41.2011ZM74.9883 45.4316C74.2243 45.4316 73.5112 45.4278 72.7982 45.4382C72.7362 45.4391 72.6376 45.5214 72.6199 45.5844C72.3636 46.4946 72.1182 47.4081 71.8664 48.3348C71.9168 48.3348 71.9452 48.3431 71.9659 48.3338C72.7092 48.0001 73.4664 47.7125 74.2732 47.5786C74.3283 47.5694 74.4039 47.5098 74.4188 47.4582C74.6095 46.8006 74.791 46.1401 74.9883 45.4316ZM70.9394 41.2186C70.729 41.2022 70.5548 41.1884 70.3409 41.1718C70.4536 40.7646 70.5582 40.385 70.6639 40.0058C70.7512 39.6921 70.8306 39.3756 70.9348 39.0677C70.9622 38.9867 71.0679 38.8763 71.1386 38.8755C72.1302 38.8653 73.1223 38.8716 74.1142 38.8752C74.1386 38.8754 74.1632 38.8941 74.214 38.915C74.1835 39.1459 74.1523 39.382 74.116 39.6579C74.4156 39.5365 74.6772 39.4296 74.9394 39.3247C75.7369 39.0055 76.5594 38.8434 77.4216 38.86C78.4401 38.8795 79.4594 38.8638 80.4782 38.8656C80.5904 38.8658 80.7027 38.8803 80.8471 38.8903C80.8217 39.007 80.8073 39.093 80.784 39.1767C80.623 39.7608 80.4485 40.3416 80.304 40.9298C80.2513 41.1441 80.1506 41.222 79.9522 41.1945C79.7001 41.1598 79.5791 41.2545 79.5062 41.5185C78.5799 44.8655 77.641 48.2087 76.706 51.553C76.6849 51.629 76.6735 51.708 76.6527 51.8083C76.846 51.8181 77.0209 51.8269 77.2308 51.8376C77.2113 51.9392 77.201 52.0238 77.1784 52.1051C77.0284 52.6454 76.8655 53.1825 76.7291 53.7262C76.6769 53.9341 76.5836 54.0239 76.3787 53.9878C76.1063 53.9399 75.9917 54.0561 75.9266 54.3318C75.7889 54.9155 75.7708 54.9112 75.1788 54.9112H72.9532H72.6231C72.7062 54.594 72.7784 54.3184 72.8608 54.0035H66.8081C66.8081 53.9083 66.7951 53.8455 66.8102 53.7904C66.974 53.1978 67.149 52.6079 67.3049 52.0131C67.3564 51.8168 67.4829 51.8001 67.629 51.8255C67.9089 51.8745 68.0083 51.7418 68.0806 51.4804C69.0109 48.1155 69.9524 44.7539 70.891 41.3913C70.9028 41.3492 70.9147 41.3069 70.9394 41.2186Z" fill="#FEFEFE"/>
<path fill-rule="evenodd" clip-rule="evenodd" d="M18.4802 17.9977C18.3629 18.5784 18.2548 19.1177 18.1451 19.6567C17.5162 22.7463 16.8757 25.8334 16.2703 28.9276C16.1858 29.359 16.205 29.8396 16.2947 30.2719C16.4714 31.1228 17.1264 31.6222 18.1272 31.7037C19.2537 31.7952 20.3202 31.6079 21.2158 30.8297C21.9105 30.2262 22.2209 29.4216 22.3994 28.5386C23.0943 25.1019 23.7976 21.6668 24.4973 18.231C24.5235 18.1025 24.5448 17.9934 24.7234 17.9948C25.7332 18.0024 26.7431 17.9991 27.7529 18.0006C27.7874 18.0006 27.8219 18.0131 27.8713 18.0226C27.8713 18.0784 27.8802 18.1321 27.8701 18.1816C27.1274 21.8119 26.4077 25.4473 25.6315 29.0701C24.9951 32.0409 23.1234 33.7992 20.2329 34.439C18.7692 34.7629 17.2854 34.794 15.825 34.3931C14.2824 33.9696 13.1838 33.0507 12.8262 31.3984C12.6287 30.4856 12.7424 29.5756 12.9281 28.6711C13.6382 25.2098 14.3456 21.748 15.046 18.2846C15.09 18.0669 15.1629 17.9882 15.3909 17.9917C16.32 18.0059 17.2496 17.9977 18.179 17.9977H18.4802Z" fill="#FEFEFE"/>
<path fill-rule="evenodd" clip-rule="evenodd" d="M57.7191 45.5744C57.8647 45.5744 57.9693 45.5739 58.0741 45.5744C59.3966 45.5808 60.7192 45.5924 62.0416 45.5854C62.1725 45.5846 62.3829 45.4996 62.419 45.4014C62.5633 45.0096 62.6535 44.5971 62.7722 44.1605C61.2308 44.1605 59.7395 44.1591 58.248 44.1655C58.1871 44.1658 58.0876 44.2274 58.0718 44.2807C57.9489 44.6944 57.8424 45.1135 57.7191 45.5744ZM63.6276 40.9782C63.5566 40.968 63.5224 40.9585 63.488 40.9585C62.0421 40.9577 60.5962 40.9608 59.1502 40.9532C58.9834 40.9522 58.9353 41.0354 58.8992 41.1674C58.7653 41.655 58.628 42.1416 58.4944 42.6295C58.4788 42.6862 58.479 42.7472 58.4691 42.829C58.5278 42.8102 58.5618 42.804 58.5915 42.789C59.2439 42.4633 59.932 42.3193 60.6595 42.3318C61.4535 42.3455 62.2481 42.3397 63.0423 42.3283C63.1318 42.3271 63.2763 42.2531 63.2995 42.181C63.423 41.7961 63.5159 41.4009 63.6276 40.9782ZM59.2029 38.8242C59.1663 39.1931 59.1336 39.5219 59.0963 39.8961C59.425 39.7061 59.7061 39.5373 59.9927 39.3791C60.7762 38.9468 61.6073 38.7331 62.5068 38.7456C64.0078 38.7665 65.5093 38.751 67.0106 38.7523C67.1227 38.7525 67.2349 38.7655 67.3789 38.7743C67.3464 38.9199 67.326 39.0328 67.296 39.1432C66.6546 41.5081 66.0032 43.8703 65.3747 46.2388C65.1721 47.0023 64.6588 47.3538 63.9487 47.4831C63.6957 47.529 63.4343 47.5438 63.1766 47.5444C61.2734 47.5493 59.3699 47.5522 57.4666 47.5408C57.2316 47.5394 57.1538 47.6211 57.0968 47.8383C56.6753 49.4399 56.2401 51.0377 55.8103 52.6374C55.6958 53.0639 55.7535 53.1425 56.1788 53.1447C56.5406 53.1464 56.9025 53.145 57.3129 53.145C57.1625 53.7116 57.0342 54.217 56.8878 54.7168C56.871 54.7741 56.7527 54.8369 56.682 54.8363C55.5478 54.8263 54.4137 54.8112 53.2799 54.7831C53.1156 54.779 52.9456 54.7195 52.7913 54.6539C52.4208 54.4969 52.2715 54.2196 52.3728 53.8246C52.6853 52.6059 53.0125 51.3914 53.3364 50.1758C54.3195 46.485 55.3062 42.795 56.2818 39.1022C56.3421 38.8737 56.4306 38.8004 56.6604 38.8048C57.4108 38.8194 58.1616 38.8098 58.9122 38.8108C58.9995 38.8109 59.0867 38.8185 59.2029 38.8242Z" fill="#FEFEFE"/>
<path fill-rule="evenodd" clip-rule="evenodd" d="M69.4003 25.8533C69.4728 25.8646 69.5073 25.8746 69.5415 25.8746C70.5956 25.8751 71.6505 25.8987 72.7036 25.8658C73.3844 25.8444 74.0345 25.6559 74.5093 25.1081C75.1073 24.4184 75.3108 23.5864 75.2804 22.6873C75.2629 22.1791 75.0197 21.7867 74.5555 21.6074C74.1943 21.468 73.8016 21.3583 73.4187 21.3429C72.4553 21.3041 71.4897 21.3295 70.5249 21.3205C70.3546 21.319 70.2935 21.389 70.2625 21.5491C70.1281 22.2414 69.9817 22.9311 69.8427 23.6226C69.6952 24.3566 69.5513 25.0912 69.4003 25.8533ZM64.4355 34.3384C64.5741 33.6413 64.7039 32.977 64.838 32.3136C65.5635 28.7234 66.2901 25.1336 67.0156 21.5436C67.2001 20.6306 67.3835 19.7175 67.5633 18.8036C67.5956 18.6396 67.6597 18.565 67.8442 18.5657C70.2119 18.5737 72.5799 18.5602 74.9474 18.5811C75.7007 18.5876 76.4356 18.7554 77.1046 19.1362C78.0471 19.6725 78.5426 20.5238 78.6172 21.5888C78.7384 23.3165 78.361 24.9306 77.2969 26.3189C76.2215 27.7219 74.8 28.5354 73.0431 28.6267C71.7422 28.6943 70.4363 28.6693 69.1326 28.6711C68.8938 28.6714 68.7988 28.7368 68.7508 28.9874C68.4228 30.6923 68.0744 32.3933 67.7368 34.0963C67.7002 34.2816 67.6311 34.366 67.4224 34.3631C66.5112 34.3498 65.5998 34.3577 64.6884 34.3567C64.6185 34.3565 64.5485 34.3468 64.4355 34.3384Z" fill="#FEFEFE"/>
<path fill-rule="evenodd" clip-rule="evenodd" d="M81.4094 48.8913H78.3768C78.5694 48.2048 78.7461 47.5523 78.9445 46.9065C78.9619 46.8499 79.1203 46.8103 79.2135 46.8095C80.1607 46.8025 81.1081 46.7979 82.0552 46.8107C82.2626 46.8136 82.355 46.7511 82.4063 46.5489C82.5389 46.0253 82.6907 45.5069 82.8467 44.9436H79.5002C79.5282 44.8155 79.5426 44.7304 79.5654 44.6474C79.7094 44.1243 79.8603 43.6031 79.9982 43.0784C80.0438 42.9044 80.1176 42.8274 80.3099 42.8279C83.4108 42.8338 86.5117 42.832 89.6127 42.8331C89.6819 42.8331 89.7511 42.8468 89.8477 42.8572C89.8264 42.9616 89.8137 43.0486 89.7907 43.1327C89.6472 43.656 89.4943 44.1768 89.3604 44.7025C89.3136 44.8862 89.229 44.9427 89.0444 44.9407C88.1777 44.9309 87.3106 44.9424 86.444 44.9318C86.2471 44.9294 86.1617 44.9904 86.1128 45.1867C85.98 45.7188 85.824 46.2451 85.6683 46.8058H88.7522C88.7049 46.9901 88.6686 47.1429 88.6266 47.2942C88.5005 47.7473 88.3619 48.197 88.2498 48.6534C88.2019 48.8491 88.1167 48.9135 87.9198 48.9116C86.9458 48.9022 85.9714 48.9147 84.9976 48.9016C84.7814 48.8988 84.6542 48.9697 84.5479 49.1537C84.3826 49.4393 84.195 49.7115 83.9819 50.0441C84.4712 50.0441 84.8969 50.0539 85.3219 50.0399C85.5473 50.0325 85.6531 50.0963 85.6878 50.3426C85.7844 51.0321 85.9148 51.7168 86.0202 52.4054C86.0631 52.6855 86.2343 52.7886 86.4808 52.8011C86.693 52.8117 86.9061 52.8033 87.1427 52.8033C87.1298 52.9001 87.1286 52.9608 87.1134 53.0174C86.9667 53.5586 86.8151 54.0983 86.671 54.6402C86.6298 54.7953 86.5513 54.8552 86.3879 54.8532C85.7268 54.8449 85.065 54.8618 84.4041 54.8467C83.8266 54.8333 83.2819 54.6034 83.1878 53.8162C83.1049 53.1222 82.916 52.4412 82.7637 51.7051C82.2377 52.5066 81.7262 53.2593 81.2435 54.0299C80.8638 54.6358 80.3508 54.9338 79.6391 54.9185C78.7727 54.8998 77.9056 54.9121 77.0388 54.9112C76.9424 54.911 76.8464 54.9112 76.7043 54.9112C76.7777 54.6313 76.8381 54.3899 76.9042 54.15C77.0023 53.7926 77.1111 53.4378 77.2015 53.0782C77.2397 52.9263 77.3163 52.8684 77.4644 52.8722C77.6877 52.8775 77.9114 52.8652 78.1346 52.8739C78.5372 52.8897 78.8561 52.7139 79.0772 52.3958C79.8544 51.2758 80.6154 50.1442 81.3814 49.0159C81.3949 48.9961 81.3935 48.9656 81.4094 48.8913Z" fill="#FEFEFE"/>
<path fill-rule="evenodd" clip-rule="evenodd" d="M89.5753 24.6131H92.852C92.8827 25.684 92.9248 26.7442 92.9402 27.8049C92.9554 28.8549 92.9435 29.9055 92.9435 30.9558C92.9779 30.9593 93.0121 30.9627 93.0465 30.9662C93.3262 30.3042 93.6067 29.6426 93.8857 28.9803C94.4613 27.6134 95.0409 26.2481 95.6065 24.8768C95.7005 24.6491 95.821 24.5678 96.0653 24.5736C96.7889 24.5907 97.5133 24.5793 98.2372 24.5803C98.3325 24.5805 98.4277 24.5883 98.5681 24.5947C98.5164 24.72 98.4846 24.8097 98.4434 24.8946C96.5104 28.8801 94.5823 32.8681 92.6395 36.8486C91.9461 38.2694 91.128 39.6073 89.982 40.7119C89.1115 41.551 88.0838 42.0125 86.8901 42.1C86.6008 42.121 86.3109 42.1354 85.9752 42.1557C86.0313 41.7137 86.0798 41.3305 86.1288 40.9471C86.1438 40.8302 86.1444 40.7082 86.1815 40.599C86.2099 40.5155 86.2702 40.4077 86.3421 40.3799C87.3199 40.0027 88.013 39.2831 88.6089 38.4481C89.3312 37.4356 89.8636 36.3129 90.3432 35.1709C90.4663 34.878 90.3572 34.4775 90.3318 34.1281C90.2733 33.3233 90.2001 32.5196 90.1342 31.7155C90.0499 30.6853 89.9655 29.6553 89.8834 28.6251C89.8042 27.6307 89.7278 26.6361 89.6508 25.6416C89.6258 25.3169 89.6031 24.9921 89.5753 24.6131Z" fill="#FEFEFE"/>
<path fill-rule="evenodd" clip-rule="evenodd" d="M83.6091 28.8436C83.5495 28.6383 83.4806 28.2121 83.3038 27.8386C83.0511 27.305 82.5268 27.1401 81.9868 27.3652C81.8001 27.443 81.6139 27.5494 81.4626 27.6839C80.5146 28.527 80.125 29.6302 80.098 30.8765C80.0889 31.3006 80.1764 31.7249 80.4232 32.0924C80.6988 32.5027 81.1222 32.664 81.5896 32.5242C81.9987 32.402 82.3162 32.1374 82.5829 31.8133C83.2363 31.0192 83.5499 30.0925 83.6091 28.8436ZM83.9925 26.1435C84.1657 26.0242 84.3453 25.9208 84.5015 25.7889C84.8724 25.4754 85.2828 25.3239 85.7735 25.3152C86.3072 25.3058 86.8392 25.2211 87.3724 25.1737C87.4852 25.1636 87.5996 25.1722 87.7422 25.1722C87.5931 25.876 87.4539 26.5476 87.3085 27.2179C86.8138 29.4985 86.313 31.7778 85.8271 34.0604C85.7771 34.2951 85.6944 34.3701 85.4597 34.3609C84.6117 34.3278 83.7624 34.3219 82.9144 34.2887C82.7993 34.2841 82.6726 34.2008 82.5784 34.1209C82.4637 34.0238 82.3779 33.8917 82.3008 33.8C81.6883 33.9807 81.1047 34.1738 80.5103 34.3216C79.9681 34.4564 79.411 34.4723 78.8651 34.3321C77.8771 34.0785 77.3644 33.3704 77.1573 32.4048C76.89 31.158 77.122 29.9534 77.5096 28.7709C77.765 27.9922 78.1326 27.2708 78.6098 26.6036C79.2374 25.7264 80.131 25.3517 81.1337 25.1691C82.0051 25.0104 82.7721 25.2831 83.4818 25.7755C83.6508 25.8928 83.8159 26.016 83.9925 26.1435Z" fill="#FEFEFE"/>
<path fill-rule="evenodd" clip-rule="evenodd" d="M51.9097 53.0255C51.7449 53.635 51.5962 54.2033 51.4319 54.7667C51.4152 54.8242 51.3058 54.8904 51.2393 54.8905C49.5326 54.8966 47.8257 54.9075 46.1192 54.887C45.3975 54.8783 45.0135 54.3714 45.1721 53.6307C45.3519 52.7905 45.591 51.9633 45.808 51.1316C45.9379 50.6333 46.0754 50.1374 46.2211 49.5971H44.1357C44.2307 49.2289 44.3127 48.9076 44.3967 48.5869C44.468 48.3153 44.5469 48.0459 44.6124 47.7731C44.6476 47.6256 44.7185 47.5712 44.873 47.5738C45.4359 47.5832 45.999 47.582 46.5618 47.5723C46.6406 47.5709 46.7714 47.5163 46.7882 47.4591C46.9553 46.8875 47.1034 46.3101 47.267 45.6967H45.2946C45.3111 45.5944 45.3166 45.525 45.3341 45.459C45.4694 44.9423 45.6115 44.4274 45.7419 43.9097C45.7837 43.7445 45.8572 43.6559 46.0355 43.6799C46.1146 43.6905 46.1962 43.6814 46.2765 43.6814H53.8094H54.1915C54.1589 43.8339 54.1387 43.9547 54.1072 44.0726C53.9881 44.5186 53.8559 44.9612 53.7486 45.4099C53.6994 45.6164 53.6254 45.7027 53.3948 45.6986C52.4568 45.682 51.5181 45.7009 50.5802 45.685C50.3528 45.6812 50.2744 45.7585 50.2242 45.9705C50.0997 46.4969 49.9492 47.0171 49.8001 47.5732H53.0405C53.0283 47.6696 53.0271 47.7385 53.0101 47.8031C52.8764 48.3107 52.733 48.8158 52.6075 49.3255C52.5589 49.523 52.4756 49.6032 52.2625 49.6001C51.3511 49.5878 50.4394 49.6042 49.5282 49.5885C49.3003 49.5846 49.226 49.6689 49.1728 49.8762C48.9569 50.7175 48.7249 51.5549 48.4962 52.3933C48.3739 52.841 48.499 53.0217 48.9659 53.0254C49.7701 53.0318 50.5744 53.0262 51.3786 53.0257C51.5384 53.0255 51.6982 53.0255 51.9097 53.0255Z" fill="#FEFEFE"/>
<path fill-rule="evenodd" clip-rule="evenodd" d="M46.224 30.5184C46.224 30.6273 46.2189 30.7365 46.2247 30.8449C46.2725 31.706 46.76 32.2597 47.5937 32.4025C48.564 32.5687 49.5198 32.1072 50.0502 31.1653C50.5894 30.2074 50.8374 29.1654 50.7674 28.0586C50.7189 27.2918 50.2669 26.7181 49.5615 26.5842C48.6583 26.4128 47.8482 26.6252 47.2476 27.3748C46.5174 28.286 46.2932 29.3804 46.224 30.5184ZM47.5297 34.5897C46.7779 34.5959 46.0484 34.4851 45.384 34.1069C44.1807 33.4217 43.6622 32.3192 43.6567 30.9685C43.6507 29.4859 44.0253 28.0942 44.8456 26.8523C46.3688 24.5465 48.9338 23.9477 50.9983 24.5785C52.3285 24.9848 53.2348 26.1711 53.3064 27.5802C53.4123 29.6662 52.8752 31.5378 51.3838 33.0395C50.324 34.1067 49.0156 34.5909 47.5297 34.5897Z" fill="#FEFEFE"/>
<path fill-rule="evenodd" clip-rule="evenodd" d="M56.456 34.3331H54C54.146 33.5764 54.286 32.8392 54.431 32.103C54.9072 29.6857 55.3881 27.2695 55.8565 24.8506C55.8967 24.6431 55.9757 24.5853 56.1717 24.588C56.8672 24.5975 57.563 24.5917 58.3042 24.5917C58.2246 25.0286 58.1511 25.432 58.0777 25.8354C58.1074 25.8617 58.1371 25.8881 58.167 25.9147C58.2003 25.8444 58.22 25.7615 58.2692 25.7056C59.3845 24.4364 60.7691 24.0997 62.3526 24.5275C63.1133 24.7329 63.6789 25.5084 63.7804 26.335C63.8698 27.065 63.6945 27.7585 63.5584 28.4585C63.1921 30.3413 62.8141 32.2217 62.4538 34.1057C62.4129 34.3188 62.3266 34.3638 62.1362 34.3609C61.5107 34.3516 60.8851 34.3581 60.2594 34.3566C60.1626 34.3565 60.0658 34.3461 59.9305 34.3383C60.0175 33.8854 60.0999 33.4536 60.1836 33.0222C60.5046 31.3684 60.8259 29.7146 61.1471 28.0609C61.1522 28.0342 61.1582 28.0075 61.1618 27.9807C61.2945 26.9939 60.8719 26.5111 59.8963 26.5348C58.75 26.5624 57.863 27.318 57.6033 28.5594C57.2252 30.3678 56.8843 32.1842 56.5273 33.997C56.5063 34.1034 56.4825 34.2093 56.456 34.3331Z" fill="#FEFEFE"/>
<path fill-rule="evenodd" clip-rule="evenodd" d="M31.1357 24.598C31.0492 25.0621 30.9719 25.4778 30.8814 25.9642C30.9934 25.835 31.0603 25.7548 31.1304 25.6775C32.2207 24.4765 33.554 24.0865 35.0942 24.5167C36.0423 24.7815 36.6521 25.582 36.6113 26.5786C36.5781 27.3875 36.4267 28.1956 36.2783 28.9946C35.9655 30.6773 35.6205 32.3538 35.2881 34.0328C35.2689 34.1299 35.245 34.226 35.2207 34.3344H32.7707C32.8637 33.8495 32.952 33.3816 33.0435 32.9144C33.3504 31.3504 33.6645 29.7879 33.9603 28.2217C34.0099 27.9588 34.008 27.6785 33.985 27.4102C33.9426 26.9146 33.6459 26.6244 33.1615 26.5554C32.0026 26.3907 30.9881 26.9617 30.591 28.0905C30.3734 28.7088 30.2702 29.3704 30.1395 30.0176C29.8632 31.385 29.6018 32.7554 29.3378 34.1253C29.314 34.2495 29.3007 34.3492 29.1349 34.3478C28.3856 34.3417 27.6362 34.3451 26.8412 34.3451C26.9262 33.8978 27.0041 33.4764 27.0866 33.0561C27.6171 30.3537 28.1529 27.6522 28.6738 24.948C28.7269 24.672 28.8235 24.5803 29.1046 24.5905C29.7634 24.614 30.4237 24.598 31.1357 24.598Z" fill="#FEFEFE"/>
<path fill-rule="evenodd" clip-rule="evenodd" d="M63.6632 53.2363C63.5152 53.7786 63.3848 54.276 63.2377 54.7685C63.22 54.8281 63.1133 54.8986 63.0473 54.899C61.8946 54.9062 60.7415 54.9184 59.5891 54.8966C58.9687 54.8848 58.5441 54.4246 58.545 53.779C58.5462 52.8896 58.5797 52.0002 58.6079 51.1109C58.637 50.1948 58.6765 49.2789 58.711 48.3628C58.7247 48.0011 58.7242 48.0006 59.0695 48.0004C59.7756 48.0001 60.4816 48.0004 61.1876 48.0004H61.5193C61.5013 48.4055 61.4846 48.7805 61.4666 49.1882C61.7637 49.1882 62.0378 49.2005 62.31 49.1843C62.5237 49.1715 62.6496 49.0605 62.7081 48.8221C62.8957 48.0576 62.9071 48.0605 63.694 48.0605H65.2763C65.0662 48.6763 64.9281 49.2623 64.6709 49.7881C64.3684 50.4061 63.7724 50.6498 63.1193 50.7028C62.6571 50.7404 62.1907 50.7358 61.7267 50.7303C61.505 50.7277 61.4058 50.7786 61.4139 51.0318C61.4315 51.5759 61.4166 52.1213 61.4174 52.6663C61.4178 52.9944 61.5202 53.129 61.8431 53.1818C62.0621 53.2175 62.2863 53.2291 62.5085 53.234C62.8734 53.2422 63.2386 53.2363 63.6632 53.2363Z" fill="#FEFEFE"/>
<path fill-rule="evenodd" clip-rule="evenodd" d="M42.3936 24.5973C42.2848 25.1265 42.1895 25.6032 42.0887 26.0789C41.5213 28.7534 40.9506 31.4274 40.3887 34.1031C40.3492 34.2908 40.2812 34.3546 40.0913 34.3517C39.3766 34.3409 38.6618 34.3479 37.9471 34.3467C37.8692 34.3465 37.7914 34.3367 37.6888 34.3297C37.8585 33.5192 38.0222 32.7316 38.1884 31.9445C38.6821 29.6059 39.1799 27.2681 39.6663 24.9279C39.7168 24.6851 39.7941 24.582 40.0617 24.5897C40.8192 24.6113 41.5777 24.5973 42.3936 24.5973Z" fill="#FEFEFE"/>
<path fill-rule="evenodd" clip-rule="evenodd" d="M45.8082 43.0125C45.9819 42.3725 46.1388 41.7802 46.3089 41.1917C46.3239 41.14 46.4208 41.0923 46.4862 41.0804C46.5902 41.0616 46.6998 41.0759 46.8069 41.0737C47.1901 41.066 47.4778 40.9218 47.6877 40.5666C48.0047 40.0308 48.3614 39.5189 48.7137 39.0057C48.7702 38.9236 48.8916 38.8399 48.9839 38.8387C49.9482 38.8271 50.9129 38.832 51.8774 38.8335C51.9108 38.8337 51.9443 38.8469 52.0175 38.8626C51.81 39.2401 51.6128 39.5986 51.3863 40.0102H55.1915C55.0273 40.6288 54.8837 41.196 54.7179 41.7563C54.7003 41.8156 54.5528 41.8681 54.4655 41.8685C53.1347 41.8755 51.804 41.8781 50.4733 41.869C50.2499 41.8673 50.105 41.9223 49.9635 42.1163C49.516 42.7299 48.9165 43.042 48.1441 43.0176C47.387 42.9937 46.6284 43.0125 45.8082 43.0125Z" fill="#FEFEFE"/>
<path fill-rule="evenodd" clip-rule="evenodd" d="M80.9408 38.7388C81.9472 38.7388 82.8925 38.7415 83.8377 38.7365C84.0255 38.7356 84.0258 38.8658 84.0406 38.9898C84.0783 39.3043 84.1209 39.6188 84.1433 39.9344C84.1604 40.1792 84.2962 40.2666 84.5104 40.2718C84.7139 40.2768 84.9174 40.273 85.1497 40.273C85.1357 40.3822 85.1351 40.4516 85.1172 40.5163C84.9756 41.03 84.8281 41.5423 84.6882 42.0567C84.6493 42.1999 84.58 42.262 84.425 42.2605C83.6571 42.2534 82.8889 42.2678 82.1212 42.2547C81.4657 42.2435 81.1101 41.9095 81.064 41.2457C81.0073 40.4249 80.9818 39.602 80.9408 38.7388Z" fill="#FEFEFE"/>
<path fill-rule="evenodd" clip-rule="evenodd" d="M40.0801 23.4116C40.1814 22.9169 40.2823 22.422 40.3842 21.9275C40.4318 21.6969 40.4699 21.4634 40.5368 21.2387C40.558 21.1675 40.6579 21.0711 40.7227 21.0704C41.5265 21.0608 42.3303 21.0664 43.1341 21.0696C43.1581 21.0698 43.1821 21.0864 43.2343 21.1061C43.1374 21.5817 43.041 22.0579 42.9433 22.5337C42.8922 22.7819 42.8495 23.0328 42.7798 23.2756C42.7595 23.3456 42.6585 23.4403 42.5935 23.4412C41.7899 23.4514 40.986 23.4466 40.182 23.4441C40.157 23.444 40.1321 23.4287 40.0801 23.4116Z" fill="#FEFEFE"/>
</svg>
