<svg width="118" height="70" viewBox="0 0 118 70" fill="none" xmlns="http://www.w3.org/2000/svg">
<rect width="118" height="70" rx="8" fill="white"/>
<path d="M59.5311 30.3121C59.4803 33.9338 63.1047 35.955 65.835 37.1566C68.6403 38.3896 69.5825 39.1802 69.5718 40.2827C69.5504 41.9702 67.334 42.7149 65.2595 42.7439C61.6405 42.7947 59.5365 41.8614 57.8635 41.1555L56.5599 46.6654C58.2382 47.3641 61.346 47.9734 64.5689 48C72.1335 48 77.0829 44.6273 77.1097 39.3978C77.1391 32.7612 66.9459 32.3937 67.0155 29.4272C67.0396 28.5278 67.9898 27.568 70.0724 27.3238C71.1029 27.2005 73.9484 27.1062 77.1739 28.448L78.4401 23.117C76.7055 22.5464 74.4757 22 71.6999 22C64.5796 22 59.5713 25.4186 59.5311 30.3121ZM90.6061 22.4594C89.2249 22.4594 88.0605 23.1871 87.5412 24.3041L76.7349 47.6083H84.2942L85.7986 43.8536H95.0362L95.9089 47.6083L102.571 47.6083L96.7574 22.4594H90.6061ZM91.6635 29.2531L93.8451 38.6967L87.8704 38.6967L91.6635 29.2531ZM50.3658 22.4594L44.4072 47.6083H51.6105L57.5664 22.4594L50.3658 22.4594ZM39.7094 22.4594L32.2117 39.5767L29.1789 25.0221C28.8229 23.3974 27.4175 22.4594 25.857 22.4594H13.5999L13.4286 23.1895C15.9448 23.6827 18.8036 24.4781 20.5355 25.3292C21.5955 25.849 21.898 26.3035 22.246 27.539L27.9904 47.6083H35.6032L47.2741 22.4594H39.7094Z" fill="#1B5BA6"/>
</svg>
