<svg width="118" height="70" viewBox="0 0 118 70" fill="none" xmlns="http://www.w3.org/2000/svg">
<rect width="118" height="70" rx="8" fill="#00C800"/>
<path fill-rule="evenodd" clip-rule="evenodd" d="M84 33.3089C84 45.6298 72.807 55.6177 59 55.6177C55.9652 55.6177 53.0585 55.1358 50.3687 54.2519C50.0348 54.143 49.6756 54.1787 49.3718 54.3609L43.5222 57.8673C42.7943 58.305 41.9335 57.5915 42.1408 56.723L43.3149 51.7639C43.4462 51.2156 43.2437 50.6383 42.8133 50.3113C37.4209 46.2191 34 40.119 34 33.3089C34 20.9879 45.193 11 59 11C67.4146 11 74.8576 14.7091 79.3892 20.397L53.8655 32.5766C53.4668 32.7673 53.0047 32.723 52.644 32.4608L46.2627 27.8168C45.8703 27.5307 45.3734 27.9735 45.5617 28.4435L50.2247 40.0662C50.6013 41.0029 51.6503 41.3758 52.4699 40.8666L81.1788 23.0042C82.981 26.0866 84 29.5913 84 33.3089Z" fill="white"/>
</svg>
